<svg xmlns="http://www.w3.org/2000/svg" xmlns:xlink="http://www.w3.org/1999/xlink" width="100" zoomAndPan="magnify" viewBox="0 0 75 74.999997" height="100" preserveAspectRatio="xMidYMid meet" version="1.0"><rect x="-7.5" width="90" fill="#ffffff" y="-7.5" height="89.999996" fill-opacity="1"/><rect x="-7.5" width="90" fill="#ffffff" y="-7.5" height="89.999996" fill-opacity="1"/><path fill="#0066ff" d="M 66.039062 57.542969 C 46.402344 51.554688 36.371094 63.804688 26.457031 58.484375 C 26.46875 58.5 26.484375 58.511719 26.5 58.523438 C 29.648438 61.34375 33.875 62.246094 38.089844 61.921875 C 46.546875 61.265625 55.050781 56.636719 66.039062 57.542969 " fill-opacity="1" fill-rule="nonzero"/><path fill="#0066ff" d="M 27.78125 64.34375 C 51.207031 71.484375 63.175781 56.875 75 63.21875 C 74.984375 63.203125 74.964844 63.1875 74.949219 63.171875 C 71.191406 59.808594 66.105469 58.347656 61.121094 59.121094 C 51.925781 60.546875 40.890625 65.425781 27.78125 64.34375 " fill-opacity="1" fill-rule="nonzero"/><path fill="#0066ff" d="M 46.992188 41.210938 C 46.316406 41.210938 45.765625 40.660156 45.765625 39.984375 C 45.765625 39.308594 46.316406 38.757812 46.992188 38.757812 C 47.671875 38.757812 48.21875 39.308594 48.21875 39.984375 C 48.21875 40.660156 47.671875 41.210938 46.992188 41.210938 Z M 56.753906 35.863281 C 56.957031 34.601562 59.011719 32.738281 59.011719 32.738281 C 59.011719 32.738281 46.535156 30.441406 39.726562 41.601562 C 34.84375 49.605469 29.386719 55.140625 21.910156 55.035156 C 25.445312 56.917969 29.476562 57.988281 33.761719 57.988281 C 41.894531 57.988281 49.125 54.140625 53.746094 48.171875 C 51.390625 48.097656 47.460938 47.285156 44.976562 43.09375 C 44.976562 43.09375 50.855469 49.867188 55.859375 44.960938 C 57.707031 41.625 58.824219 37.828125 58.988281 33.785156 C 57.449219 34.480469 56.753906 35.863281 56.753906 35.863281 Z M 37.570312 43.800781 L 34.0625 44.050781 L 31.777344 50.558594 C 33.726562 48.886719 35.640625 46.648438 37.570312 43.800781 Z M 25.214844 53.839844 C 25.214844 53.839844 27.375 50.742188 25.605469 46.554688 C 23.832031 42.363281 24.199219 39.984375 24.199219 39.984375 C 24.199219 39.984375 21.769531 45.234375 21.957031 48.53125 C 21.96875 48.777344 21.996094 49.011719 22.03125 49.234375 C 21.097656 48.472656 19.90625 47.769531 18.394531 47.28125 C 12.78125 45.46875 10.757812 43.09375 10.757812 43.09375 C 10.757812 43.09375 13.847656 49.925781 17.242188 52.539062 C 21.097656 55.507812 25.214844 53.839844 25.214844 53.839844 " fill-opacity="1" fill-rule="nonzero"/><path fill="#0066ff" d="M 17.074219 59.410156 C 4.714844 47.046875 4.714844 27.007812 17.074219 14.644531 C 23.578125 8.140625 32.207031 5.058594 40.726562 5.398438 C 30.769531 3.515625 20.085938 6.425781 12.382812 14.132812 C -0.00390625 26.515625 -0.00390625 46.59375 12.382812 58.980469 C 18.453125 65.050781 26.375 68.144531 34.332031 68.265625 C 28.015625 67.234375 21.949219 64.28125 17.074219 59.410156 " fill-opacity="1" fill-rule="nonzero"/><path fill="#0066ff" d="M 26.292969 14.335938 C 41.652344 8.296875 59 15.851562 65.039062 31.214844 C 68.214844 39.296875 67.628906 47.925781 64.121094 55.171875 C 69.503906 47.265625 71.015625 36.917969 67.25 27.34375 C 61.199219 11.957031 43.820312 4.382812 28.433594 10.433594 C 20.886719 13.402344 15.222656 19.089844 12.121094 25.933594 C 15.394531 20.855469 20.234375 16.714844 26.292969 14.335938 " fill-opacity="1" fill-rule="nonzero"/></svg>